<svg width="14" height="13" viewBox="0 0 14 13" fill="none" xmlns="http://www.w3.org/2000/svg">
<path d="M9.41667 3.16166L12.75 6.495L9.41667 9.82833M12.75 6.495H4.75M6.75 9.82833C6.75 10.0254 6.75 10.1239 6.74268 10.2093C6.66655 11.0963 6.01324 11.8262 5.14002 11.9998C5.05602 12.0165 4.95801 12.0274 4.76223 12.0492L4.0813 12.1249C3.05832 12.2385 2.5468 12.2953 2.14044 12.1653C1.59862 11.9919 1.15628 11.596 0.924119 11.0767C0.75 10.6871 0.75 10.1725 0.75 9.1432V3.84679C0.75 2.81751 0.75 2.30286 0.924119 1.91334C1.15628 1.39398 1.59862 0.998065 2.14044 0.824681C2.54681 0.694642 3.0583 0.751475 4.08129 0.86514L4.76223 0.9408C4.95808 0.962561 5.056 0.973442 5.14002 0.990147C6.01324 1.16377 6.66655 1.89369 6.74268 2.78073C6.75 2.86608 6.75 2.96461 6.75 3.16166" stroke="#E36161" stroke-width="1.5" stroke-linecap="round" stroke-linejoin="round"/>
</svg>
